# xmcd
#
# Track frame offsets:
#	150
#	20096
#	38351
#	55858
#	75366
#	93035
#	110506
#	131570
#	151098
#	168637
#	187401
#	207690
#	226624
#	241003
#	255704
#
# Disc length: 3663 seconds
#
# Revision: 2
# Processed by: cddbd v1.5.2PL0 Copyright (c) Steve Scherf et al.
# Submitted via: EasyCDDAExtractor 15.3.0.1
#
DISCID=b80e4d0f
DTITLE=Ednita Nazario - 30 Exitos Insuperables - CD 1
DYEAR=2003
DGENRE=Latin
TTITLE0=Quiero Que Me Hagas El Amor
TTITLE1=Por Ti Me Casare
TTITLE2=Un Corazon Hecho Pedazos
TTITLE3=Tanto Nos Amamos
TTITLE4=Eres Libre
TTITLE5=Quien Te Robo El Corazon
TTITLE6=Lo Que Son Las Cosas
TTITLE7=Pienso En Ti
TTITLE8=Tres Deseos
TTITLE9=Despues De Tanto
TTITLE10=Atada A Tu Volcan
TTITLE11=Te Sigo Esperando
TTITLE12=Mirame
TTITLE13=Viene Y Va
TTITLE14=Como Antes
EXTD=
EXTT0=
EXTT1=
EXTT2=
EXTT3=
EXTT4=
EXTT5=
EXTT6=
EXTT7=
EXTT8=
EXTT9=
EXTT10=
EXTT11=
EXTT12=
EXTT13=
EXTT14=
PLAYORDER=
